# xmcd CD database file generated by Grip 2.95
# 
# Track frame offsets:
#       150
#       12127
#       31862
#       47527
#       64555
#       85975
#       105400
#       121192
#       134932
#       148500
# 
# Disc length: 2236 seconds
# 
# Revision: 3
# Processed by: cddbd v1.4b41PL1 Copyright (c) Steve Scherf et al.
# Submitted via: Grip 2.95
# 
DISCID=7d08ba0a
DTITLE=Restless Heart - The Best of Restless Heart
DYEAR=1900
DGENRE=
TTITLE0=You Can Depend On Me
TTITLE1=Fast Moving Train
TTITLE2=A Tender Lie
TTITLE3=Wheels
TTITLE4=The Bluest Eyes in Texas
TTITLE5=Familiar Pain
TTITLE6=That Rock Won't Roll
TTITLE7=Til I Loved You
TTITLE8=Why Does It Have To Be
TTITLE9=I'll Still Be Lovin' You
EXTD=
EXTT0=
EXTT1=
EXTT2=
EXTT3=
EXTT4=
EXTT5=
EXTT6=
EXTT7=
EXTT8=
EXTT9=
PLAYORDER=
